# xmcd
#
# Track frame offsets:
# 150
# 33462
# 55037
# 92130
# 106140
# 127037
# 146090
# 163977
# 177685
# 220752
#
# Disc length: 3518 seconds
#
#
# Revision: 2
# Processed by: cddbd v1.5.1PL0 Copyright (c) Steve Scherf et al.
# Submitted via: FreeRIP 2.00 
#
DISCID=940dbc0a
DTITLE=Charles Mingus - This is Jazz 6
DYEAR=1996
DGENRE=Jazz
TTITLE0=Better Git It In Your Soul
TTITLE1=Goodbye Pork Pie Hat
TTITLE2=Fables of Faubus
TTITLE3=Self-Portrait in Three Colors
TTITLE4=Slop
TTITLE5=Song With Orange
TTITLE6=Gunslinging Bird
TTITLE7=New Now Know How
TTITLE8=The Shoes of the Fisherman's Wife Are Some Jive Ass Slippers
TTITLE9=Please Don't Come Back From The Moon
EXTD=
EXTT0=
EXTT1=
EXTT2=
EXTT3=
EXTT4=
EXTT5=
EXTT6=
EXTT7=
EXTT8=
EXTT9=
PLAYORDER=
